<svg width="22" height="22" viewBox="0 0 22 22" fill="none" xmlns="http://www.w3.org/2000/svg">
<path d="M6.41675 15.5834V11.9167" stroke="#141B34" stroke-width="1.375" stroke-linecap="round"/>
<path d="M11 15.5834V6.41669" stroke="#141B34" stroke-width="1.375" stroke-linecap="round"/>
<path d="M15.5833 15.5833V10.0833" stroke="#141B34" stroke-width="1.375" stroke-linecap="round"/>
<path d="M2.29175 11C2.29175 6.89488 2.29175 4.8423 3.56705 3.56699C4.84236 2.29169 6.89494 2.29169 11.0001 2.29169C15.1052 2.29169 17.1578 2.29169 18.4331 3.56699C19.7084 4.8423 19.7084 6.89488 19.7084 11C19.7084 15.1051 19.7084 17.1577 18.4331 18.4331C17.1578 19.7084 15.1052 19.7084 11.0001 19.7084C6.89494 19.7084 4.84236 19.7084 3.56705 18.4331C2.29175 17.1577 2.29175 15.1051 2.29175 11Z" stroke="#141B34" stroke-width="1.375" stroke-linejoin="round"/>
</svg>
