<svg width="300" height="86" viewBox="0 0 300 86" fill="none" xmlns="http://www.w3.org/2000/svg">
<path d="M89.7449 26.52C89.836 25.8367 89.836 25.3356 89.836 24.5158C89.836 18.6401 87.0575 12.7643 78.9956 12.7643C71.3889 12.7643 67.6084 18.0479 67.6084 25.4723C67.6084 31.6668 70.979 37.4515 78.7677 37.4515C86.1466 37.4515 88.7429 32.7145 89.5627 29.8449H83.0493C82.4116 31.2569 81.6373 32.3501 78.9044 32.3501C75.6705 32.3501 74.1674 29.4805 74.1674 26.52H89.7449ZM74.3041 22.5116C74.5773 19.5966 75.8527 17.4558 78.95 17.4558C82.1384 17.4558 83.2316 19.7787 83.277 22.5116H74.3041ZM93.6024 36.9049H112.687L113.461 31.7579H101.209L112.641 18.4123V13.3109H94.1488V18.4578H105.263L93.6024 31.9857V36.9049ZM115.971 13.3109L124.579 37.6336C123.669 40.23 122.484 41.0498 120.07 41.0498C119.524 41.0498 118.84 41.0042 118.385 40.9587V46.1968C119.524 46.3335 120.845 46.379 121.437 46.379C127.085 46.379 128.998 44.3749 131.23 37.5882L139.156 13.3109H132.642C129.863 23.2405 128.451 28.524 127.95 30.8925H127.904C127.54 28.7062 125.399 21.464 122.985 13.3109H115.971ZM157.039 29.2984C156.447 31.0748 155.263 32.3957 152.986 32.3957C150.161 32.3957 148.34 30.1182 148.34 25.0624C148.34 20.5076 150.025 17.9112 153.031 17.9112C155.582 17.9112 156.675 19.2321 157.085 21.1452H163.416C163.325 18.5034 161.093 12.7643 153.167 12.7643C145.972 12.7643 141.735 18.3212 141.735 25.2901C141.735 32.3957 145.516 37.4515 152.848 37.4515C159.864 37.4515 162.641 33.2155 163.416 29.2984H157.039ZM179.218 12.7643C171.748 12.7643 167.331 17.9112 167.331 25.1989C167.331 32.2134 171.612 37.4515 178.9 37.4515C186.37 37.4515 190.651 32.2134 190.651 25.0624C190.651 17.6836 186.143 12.7643 179.218 12.7643ZM178.946 17.9112C182.225 17.9112 184.047 20.2342 184.047 25.1534C184.047 29.6628 182.271 32.3501 179.037 32.3501C175.894 32.3501 173.935 29.6628 173.935 25.1079C173.935 20.1431 175.939 17.9112 178.946 17.9112ZM216.8 13.3109H210.286V25.8822C210.286 30.5282 209.057 32.1223 206.096 32.1223C203.272 32.1223 202.452 29.9816 202.452 27.3854V13.3109H195.938V28.7062C195.938 34.5364 198.991 37.4515 203.774 37.4515C206.825 37.4515 208.874 36.5405 210.286 34.172C210.332 34.9919 210.377 36.2672 210.469 36.9049H216.845C216.8 34.8097 216.8 32.3045 216.8 30.0727V13.3109ZM223.585 36.9049H230.144V26.6109C230.144 20.1431 232.968 18.8678 237.705 19.0044V12.7643C233.696 12.8098 231.191 14.7684 230.144 17.4558C230.144 16.1804 230.052 13.8575 229.961 13.3109H223.539C223.585 15.315 223.585 17.3646 223.585 19.7332V36.9049ZM240.827 29.7993C241.374 33.9898 244.29 37.4515 251.485 37.4515C258.636 37.4515 261.643 33.8988 261.643 29.9816C261.643 26.52 260.504 23.8325 252.624 22.0106C248.798 21.0996 248.07 20.553 248.07 19.3688C248.07 18.3212 248.798 17.3646 250.94 17.3646C253.991 17.3646 254.583 19.0044 254.811 19.8698H261.006C260.823 16.6815 258.363 12.7643 251.213 12.7643C244.107 12.7643 241.692 16.4537 241.692 19.9154C241.692 23.2405 242.923 25.609 250.62 27.5219C253.991 28.3419 254.993 28.9339 254.993 30.437C254.993 31.8946 254.128 32.76 251.713 32.76C249.3 32.76 247.75 31.7124 247.25 29.7993H240.827ZM287.767 26.52C287.857 25.8367 287.857 25.3356 287.857 24.5158C287.857 18.6401 285.08 12.7643 277.018 12.7643C269.41 12.7643 265.63 18.0479 265.63 25.4723C265.63 31.6668 269.001 37.4515 276.79 37.4515C284.168 37.4515 286.764 32.7145 287.584 29.8449H281.07C280.433 31.2569 279.659 32.3501 276.926 32.3501C273.692 32.3501 272.189 29.4805 272.189 26.52H287.767ZM272.325 22.5116C272.599 19.5966 273.875 17.4558 276.971 17.4558C280.159 17.4558 281.253 19.7787 281.298 22.5116H272.325Z" fill="white"/>
<path d="M55.749 48.7942H23.8887V40.1924L43.2425 17.2168H31.821C30.4291 17.2168 29.1449 16.4676 28.4599 15.2559L24.7375 8.67165H55.5226V15.0423C55.5226 16.2634 55.0887 17.4447 54.298 18.3754L35.7161 40.2491H50.6009C53.4441 40.2491 55.749 42.5539 55.749 45.3972V48.7942Z" fill="#E8F54A"/>
<path d="M16.5966 48.8446L43.3502 17.2517L31.3718 40.6786L32.0078 48.7349L16.5966 48.8446Z" fill="#E8F54A"/>
<path d="M0.100731 12.5169C0.100731 10.3832 1.83133 8.65406 3.96497 8.65579L19.4804 8.66842C21.4071 8.66999 23.1715 9.74712 24.0534 11.46L27.0173 17.2169L3.96621 17.2429C1.83207 17.2453 0.100731 15.5159 0.100731 13.3818V12.5169Z" fill="white"/>
<path d="M0.100731 28.5189C0.100731 26.0842 2.07438 24.1105 4.509 24.1105H34.3663L26.7748 32.9271H4.509C2.07438 32.9271 0.100731 30.9535 0.100731 28.5189Z" fill="white"/>
<path d="M8.91727 24.1105V48.3372L6.44352 48.3017C2.92586 48.2512 0.100731 45.3852 0.100731 41.8671L0.100731 29.2587C0.100732 26.4155 2.40563 24.1105 5.24887 24.1105H8.91727Z" fill="white"/>
<path d="M0.100731 39.9781H21.2538L13.675 48.7947H5.24887C2.40563 48.7947 0.100731 46.4897 0.100731 43.6465V39.9781Z" fill="white"/>
<path d="M4.332 78.7053V67.4193H0.247V65.4053H10.621V67.4193H6.536V78.7053H4.332ZM12.07 78.7053V65.4053H14.198V78.7053H12.07ZM18.511 78.7053V73.8413H20.639V78.7053H18.511ZM18.511 73.8413C18.511 73.0813 18.4224 72.4986 18.245 72.0933C18.0677 71.6753 17.8207 71.3839 17.504 71.2193C17.2 71.0546 16.8454 70.9723 16.44 70.9723C15.718 70.9596 15.1607 71.1939 14.768 71.6753C14.388 72.1566 14.198 72.8469 14.198 73.7463H13.381C13.381 72.7456 13.5267 71.8906 13.818 71.1813C14.122 70.4593 14.5464 69.9146 15.091 69.5473C15.6357 69.1673 16.2817 68.9773 17.029 68.9773C17.7764 68.9773 18.4224 69.1293 18.967 69.4333C19.5117 69.7373 19.9234 70.2123 20.202 70.8583C20.4934 71.4916 20.639 72.3213 20.639 73.3473V73.8413H18.511ZM27.0312 78.9333C26.1065 78.9333 25.2832 78.7243 24.5612 78.3063C23.8519 77.8756 23.2882 77.2866 22.8702 76.5393C22.4649 75.7919 22.2622 74.9306 22.2622 73.9553C22.2622 72.9799 22.4712 72.1186 22.8892 71.3713C23.3072 70.6239 23.8772 70.0413 24.5992 69.6233C25.3339 69.1926 26.1699 68.9773 27.1072 68.9773C27.9559 68.9773 28.7222 69.1989 29.4062 69.6423C30.0902 70.0729 30.6285 70.6999 31.0212 71.5233C31.4265 72.3466 31.6292 73.3283 31.6292 74.4683H24.1622L24.4472 74.2023C24.4472 74.7849 24.5739 75.2916 24.8272 75.7223C25.0805 76.1403 25.4162 76.4633 25.8342 76.6913C26.2522 76.9193 26.7145 77.0333 27.2212 77.0333C27.8039 77.0333 28.2852 76.9066 28.6652 76.6533C29.0452 76.3873 29.3429 76.0453 29.5582 75.6273L31.4392 76.4253C31.1732 76.9319 30.8312 77.3753 30.4132 77.7553C30.0079 78.1353 29.5202 78.4266 28.9502 78.6293C28.3929 78.8319 27.7532 78.9333 27.0312 78.9333ZM24.5802 73.1003L24.2762 72.8343H29.6342L29.3492 73.1003C29.3492 72.5809 29.2352 72.1566 29.0072 71.8273C28.7792 71.4853 28.4879 71.2319 28.1332 71.0673C27.7912 70.8899 27.4302 70.8013 27.0502 70.8013C26.6702 70.8013 26.2902 70.8899 25.9102 71.0673C25.5302 71.2319 25.2135 71.4853 24.9602 71.8273C24.7069 72.1566 24.5802 72.5809 24.5802 73.1003ZM38.2411 78.7053V65.4053H42.6301C43.5421 65.4053 44.3274 65.5446 44.9861 65.8233C45.6574 66.1019 46.1767 66.5199 46.5441 67.0773C46.9114 67.6219 47.0951 68.3059 47.0951 69.1293C47.0951 69.6993 46.9557 70.2123 46.6771 70.6683C46.4111 71.1243 46.0311 71.5043 45.5371 71.8083C46.1831 72.1249 46.6771 72.5493 47.0191 73.0813C47.3611 73.6133 47.5321 74.2466 47.5321 74.9813C47.5321 75.7666 47.3547 76.4379 47.0001 76.9953C46.6454 77.5526 46.1451 77.9769 45.4991 78.2683C44.8531 78.5596 44.0867 78.7053 43.2001 78.7053H38.2411ZM40.4071 76.7293H43.0291C43.7257 76.7293 44.2767 76.5583 44.6821 76.2163C45.0874 75.8743 45.2901 75.4119 45.2901 74.8293C45.2901 74.1959 45.0621 73.7019 44.6061 73.3473C44.1627 72.9926 43.5357 72.8153 42.7251 72.8153H40.4071V76.7293ZM40.4071 70.9913H42.8201C43.4534 70.9913 43.9474 70.8266 44.3021 70.4973C44.6694 70.1553 44.8531 69.6866 44.8531 69.0913C44.8531 68.4833 44.6441 68.0209 44.2261 67.7043C43.8207 67.3749 43.2507 67.2103 42.5161 67.2103H40.4071V70.9913ZM53.7129 78.9333C52.7882 78.9333 51.9649 78.7243 51.2429 78.3063C50.5335 77.8756 49.9699 77.2866 49.5519 76.5393C49.1465 75.7919 48.9439 74.9306 48.9439 73.9553C48.9439 72.9799 49.1529 72.1186 49.5709 71.3713C49.9889 70.6239 50.5589 70.0413 51.2809 69.6233C52.0155 69.1926 52.8515 68.9773 53.7889 68.9773C54.6375 68.9773 55.4039 69.1989 56.0879 69.6423C56.7719 70.0729 57.3102 70.6999 57.7029 71.5233C58.1082 72.3466 58.3109 73.3283 58.3109 74.4683H50.8439L51.1289 74.2023C51.1289 74.7849 51.2555 75.2916 51.5089 75.7223C51.7622 76.1403 52.0979 76.4633 52.5159 76.6913C52.9339 76.9193 53.3962 77.0333 53.9029 77.0333C54.4855 77.0333 54.9669 76.9066 55.3469 76.6533C55.7269 76.3873 56.0245 76.0453 56.2399 75.6273L58.1209 76.4253C57.8549 76.9319 57.5129 77.3753 57.0949 77.7553C56.6895 78.1353 56.2019 78.4266 55.6319 78.6293C55.0745 78.8319 54.4349 78.9333 53.7129 78.9333ZM51.2619 73.1003L50.9579 72.8343H56.3159L56.0309 73.1003C56.0309 72.5809 55.9169 72.1566 55.6889 71.8273C55.4609 71.4853 55.1695 71.2319 54.8149 71.0673C54.4729 70.8899 54.1119 70.8013 53.7319 70.8013C53.3519 70.8013 52.9719 70.8899 52.5919 71.0673C52.2119 71.2319 51.8952 71.4853 51.6419 71.8273C51.3885 72.1566 51.2619 72.5809 51.2619 73.1003ZM63.3987 78.9333C62.7654 78.9333 62.1827 78.8383 61.6507 78.6483C61.1187 78.4583 60.6627 78.1923 60.2827 77.8503C59.9027 77.4956 59.6114 77.0839 59.4087 76.6153L61.2517 75.7983C61.4417 76.1529 61.7204 76.4506 62.0877 76.6913C62.4677 76.9319 62.8857 77.0523 63.3417 77.0523C63.8357 77.0523 64.2284 76.9699 64.5197 76.8053C64.8237 76.6279 64.9757 76.3873 64.9757 76.0833C64.9757 75.7919 64.8617 75.5703 64.6337 75.4183C64.4057 75.2536 64.0827 75.1206 63.6647 75.0193L62.7717 74.7723C61.8724 74.5443 61.1694 74.1833 60.6627 73.6893C60.156 73.1826 59.9027 72.6063 59.9027 71.9603C59.9027 71.0103 60.2067 70.2756 60.8147 69.7563C61.4354 69.2369 62.322 68.9773 63.4747 68.9773C64.0574 68.9773 64.5894 69.0659 65.0707 69.2433C65.5647 69.4079 65.989 69.6486 66.3437 69.9653C66.6984 70.2693 66.9454 70.6303 67.0847 71.0483L65.3177 71.8463C65.191 71.5296 64.9504 71.2889 64.5957 71.1243C64.241 70.9469 63.8484 70.8583 63.4177 70.8583C62.987 70.8583 62.6514 70.9533 62.4107 71.1433C62.17 71.3206 62.0497 71.5739 62.0497 71.9033C62.0497 72.0933 62.1574 72.2706 62.3727 72.4353C62.588 72.5873 62.8984 72.7139 63.3037 72.8153L64.4247 73.0813C65.0454 73.2333 65.552 73.4739 65.9447 73.8033C66.3374 74.1199 66.6287 74.4809 66.8187 74.8863C67.0087 75.2789 67.1037 75.6779 67.1037 76.0833C67.1037 76.6533 66.939 77.1536 66.6097 77.5843C66.293 78.0149 65.856 78.3506 65.2987 78.5913C64.7414 78.8193 64.108 78.9333 63.3987 78.9333ZM72.5723 78.9333C71.5716 78.9333 70.8053 78.6863 70.2733 78.1923C69.7539 77.6856 69.4943 76.9636 69.4943 76.0263V66.2413H71.6033V75.6273C71.6033 76.0706 71.7046 76.4063 71.9073 76.6343C72.1226 76.8623 72.4329 76.9763 72.8383 76.9763C72.9649 76.9763 73.1043 76.9509 73.2563 76.9003C73.4083 76.8496 73.5793 76.7546 73.7693 76.6153L74.5483 78.2303C74.2189 78.4583 73.8896 78.6293 73.5603 78.7433C73.2309 78.8699 72.9016 78.9333 72.5723 78.9333ZM67.9173 71.0293V69.2053H74.1683V71.0293H67.9173ZM87.1413 78.9333C85.8239 78.9333 84.6586 78.6419 83.6453 78.0593C82.6319 77.4766 81.8339 76.6659 81.2513 75.6273C80.6813 74.5886 80.3963 73.3979 80.3963 72.0553C80.3963 70.7126 80.6813 69.5283 81.2513 68.5023C81.8339 67.4636 82.6256 66.6529 83.6263 66.0703C84.6269 65.4749 85.7796 65.1773 87.0843 65.1773C88.4016 65.1773 89.5606 65.4749 90.5613 66.0703C91.5746 66.6529 92.3599 67.4636 92.9173 68.5023C93.4873 69.5283 93.7723 70.7126 93.7723 72.0553C93.7723 73.3979 93.4873 74.5886 92.9173 75.6273C92.3599 76.6659 91.5809 77.4766 90.5803 78.0593C89.5923 78.6419 88.4459 78.9333 87.1413 78.9333ZM87.1413 76.9193C88.0026 76.9193 88.7626 76.7103 89.4213 76.2923C90.0799 75.8743 90.5929 75.3043 90.9603 74.5823C91.3403 73.8476 91.5303 73.0053 91.5303 72.0553C91.5303 71.1179 91.3403 70.2819 90.9603 69.5473C90.5803 68.8126 90.0546 68.2426 89.3833 67.8373C88.7246 67.4193 87.9583 67.2103 87.0843 67.2103C86.2229 67.2103 85.4566 67.4193 84.7853 67.8373C84.1266 68.2426 83.6009 68.8126 83.2083 69.5473C82.8283 70.2693 82.6383 71.1053 82.6383 72.0553C82.6383 73.0053 82.8283 73.8476 83.2083 74.5823C83.6009 75.3043 84.1329 75.8743 84.8043 76.2923C85.4883 76.7103 86.2673 76.9193 87.1413 76.9193ZM95.7141 78.7053V69.2053H97.7091L97.8421 70.9533V78.7053H95.7141ZM102.155 78.7053V73.8413H104.283V78.7053H102.155ZM102.155 73.8413C102.155 73.0813 102.066 72.4986 101.889 72.0933C101.724 71.6753 101.484 71.3839 101.167 71.2193C100.863 71.0546 100.502 70.9723 100.084 70.9723C99.3748 70.9596 98.8238 71.1939 98.4311 71.6753C98.0385 72.1566 97.8421 72.8469 97.8421 73.7463H97.0441C97.0441 72.7456 97.1898 71.8906 97.4811 71.1813C97.7725 70.4593 98.1905 69.9146 98.7351 69.5473C99.2798 69.1673 99.9258 68.9773 100.673 68.9773C101.433 68.9773 102.079 69.1293 102.611 69.4333C103.156 69.7373 103.567 70.2123 103.846 70.8583C104.137 71.4916 104.283 72.3213 104.283 73.3473V73.8413H102.155ZM106.439 78.7053V65.4053H108.567V78.7053H106.439ZM111.062 78.7053V69.2053H113.171V78.7053H111.062ZM112.126 67.4003C111.784 67.4003 111.486 67.2799 111.233 67.0393C110.992 66.7859 110.872 66.4883 110.872 66.1463C110.872 65.8043 110.992 65.5129 111.233 65.2723C111.486 65.0316 111.784 64.9113 112.126 64.9113C112.468 64.9113 112.759 65.0316 113 65.2723C113.253 65.5129 113.38 65.8043 113.38 66.1463C113.38 66.4883 113.253 66.7859 113 67.0393C112.759 67.2799 112.468 67.4003 112.126 67.4003ZM115.679 78.7053V69.2053H117.674L117.807 70.9533V78.7053H115.679ZM122.12 78.7053V73.8413H124.248V78.7053H122.12ZM122.12 73.8413C122.12 73.0813 122.031 72.4986 121.854 72.0933C121.689 71.6753 121.449 71.3839 121.132 71.2193C120.828 71.0546 120.467 70.9723 120.049 70.9723C119.34 70.9596 118.789 71.1939 118.396 71.6753C118.003 72.1566 117.807 72.8469 117.807 73.7463H117.009C117.009 72.7456 117.155 71.8906 117.446 71.1813C117.737 70.4593 118.155 69.9146 118.7 69.5473C119.245 69.1673 119.891 68.9773 120.638 68.9773C121.398 68.9773 122.044 69.1293 122.576 69.4333C123.121 69.7373 123.532 70.2123 123.811 70.8583C124.102 71.4916 124.248 72.3213 124.248 73.3473V73.8413H122.12ZM130.641 78.9333C129.716 78.9333 128.893 78.7243 128.171 78.3063C127.461 77.8756 126.898 77.2866 126.48 76.5393C126.074 75.7919 125.872 74.9306 125.872 73.9553C125.872 72.9799 126.081 72.1186 126.499 71.3713C126.917 70.6239 127.487 70.0413 128.209 69.6233C128.943 69.1926 129.779 68.9773 130.717 68.9773C131.565 68.9773 132.332 69.1989 133.016 69.6423C133.7 70.0729 134.238 70.6999 134.631 71.5233C135.036 72.3466 135.239 73.3283 135.239 74.4683H127.772L128.057 74.2023C128.057 74.7849 128.183 75.2916 128.437 75.7223C128.69 76.1403 129.026 76.4633 129.444 76.6913C129.862 76.9193 130.324 77.0333 130.831 77.0333C131.413 77.0333 131.895 76.9066 132.275 76.6533C132.655 76.3873 132.952 76.0453 133.168 75.6273L135.049 76.4253C134.783 76.9319 134.441 77.3753 134.023 77.7553C133.617 78.1353 133.13 78.4266 132.56 78.6293C132.002 78.8319 131.363 78.9333 130.641 78.9333ZM128.19 73.1003L127.886 72.8343H133.244L132.959 73.1003C132.959 72.5809 132.845 72.1566 132.617 71.8273C132.389 71.4853 132.097 71.2319 131.743 71.0673C131.401 70.8899 131.04 70.8013 130.66 70.8013C130.28 70.8013 129.9 70.8899 129.52 71.0673C129.14 71.2319 128.823 71.4853 128.57 71.8273C128.316 72.1566 128.19 72.5809 128.19 73.1003ZM141.85 78.7053V65.4053H144.054V76.6913H150.077V78.7053H141.85ZM155.764 78.9333C154.839 78.9333 154.016 78.7243 153.294 78.3063C152.584 77.8756 152.021 77.2866 151.603 76.5393C151.197 75.7919 150.995 74.9306 150.995 73.9553C150.995 72.9799 151.204 72.1186 151.622 71.3713C152.04 70.6239 152.61 70.0413 153.332 69.6233C154.066 69.1926 154.902 68.9773 155.84 68.9773C156.688 68.9773 157.455 69.1989 158.139 69.6423C158.823 70.0729 159.361 70.6999 159.754 71.5233C160.159 72.3466 160.362 73.3283 160.362 74.4683H152.895L153.18 74.2023C153.18 74.7849 153.306 75.2916 153.56 75.7223C153.813 76.1403 154.149 76.4633 154.567 76.6913C154.985 76.9193 155.447 77.0333 155.954 77.0333C156.536 77.0333 157.018 76.9066 157.398 76.6533C157.778 76.3873 158.075 76.0453 158.291 75.6273L160.172 76.4253C159.906 76.9319 159.564 77.3753 159.146 77.7553C158.74 78.1353 158.253 78.4266 157.683 78.6293C157.125 78.8319 156.486 78.9333 155.764 78.9333ZM153.313 73.1003L153.009 72.8343H158.367L158.082 73.1003C158.082 72.5809 157.968 72.1566 157.74 71.8273C157.512 71.4853 157.22 71.2319 156.866 71.0673C156.524 70.8899 156.163 70.8013 155.783 70.8013C155.403 70.8013 155.023 70.8899 154.643 71.0673C154.263 71.2319 153.946 71.4853 153.693 71.8273C153.439 72.1566 153.313 72.5809 153.313 73.1003ZM167.786 78.7053L167.691 76.9193V73.8223C167.691 73.1763 167.622 72.6379 167.482 72.2073C167.356 71.7639 167.14 71.4283 166.836 71.2003C166.545 70.9596 166.152 70.8393 165.658 70.8393C165.202 70.8393 164.803 70.9343 164.461 71.1243C164.119 71.3143 163.828 71.6119 163.587 72.0173L161.725 71.3333C161.928 70.9153 162.194 70.5289 162.523 70.1743C162.865 69.8069 163.29 69.5156 163.796 69.3003C164.316 69.0849 164.936 68.9773 165.658 68.9773C166.583 68.9773 167.356 69.1609 167.976 69.5283C168.597 69.8829 169.053 70.3959 169.344 71.0673C169.648 71.7386 169.8 72.5493 169.8 73.4993L169.743 78.7053H167.786ZM165.05 78.9333C163.91 78.9333 163.024 78.6799 162.39 78.1733C161.77 77.6666 161.459 76.9509 161.459 76.0263C161.459 75.0383 161.789 74.2846 162.447 73.7653C163.119 73.2459 164.05 72.9863 165.24 72.9863H167.786V74.6203H165.924C165.076 74.6203 164.48 74.7406 164.138 74.9813C163.796 75.2093 163.625 75.5386 163.625 75.9693C163.625 76.3366 163.771 76.6279 164.062 76.8433C164.366 77.0459 164.784 77.1473 165.316 77.1473C165.798 77.1473 166.216 77.0396 166.57 76.8243C166.925 76.6089 167.197 76.3239 167.387 75.9693C167.59 75.6146 167.691 75.2156 167.691 74.7723H168.318C168.318 76.0643 168.059 77.0839 167.539 77.8313C167.02 78.5659 166.19 78.9333 165.05 78.9333ZM173.361 73.6513C173.361 72.6253 173.558 71.7829 173.95 71.1243C174.343 70.4656 174.85 69.9779 175.47 69.6613C176.104 69.3319 176.762 69.1673 177.446 69.1673V71.2003C176.864 71.2003 176.313 71.2826 175.793 71.4473C175.287 71.5993 174.875 71.8526 174.558 72.2073C174.242 72.5619 174.083 73.0306 174.083 73.6133L173.361 73.6513ZM171.955 78.7053V69.2053H174.083V78.7053H171.955ZM178.858 78.7053V69.2053H180.853L180.986 70.9533V78.7053H178.858ZM185.299 78.7053V73.8413H187.427V78.7053H185.299ZM185.299 73.8413C185.299 73.0813 185.21 72.4986 185.033 72.0933C184.868 71.6753 184.627 71.3839 184.311 71.2193C184.007 71.0546 183.646 70.9723 183.228 70.9723C182.518 70.9596 181.967 71.1939 181.575 71.6753C181.182 72.1566 180.986 72.8469 180.986 73.7463H180.188C180.188 72.7456 180.333 71.8906 180.625 71.1813C180.916 70.4593 181.334 69.9146 181.879 69.5473C182.423 69.1673 183.069 68.9773 183.817 68.9773C184.577 68.9773 185.223 69.1293 185.755 69.4333C186.299 69.7373 186.711 70.2123 186.99 70.8583C187.281 71.4916 187.427 72.3213 187.427 73.3473V73.8413H185.299ZM189.715 78.7053V69.2053H191.824V78.7053H189.715ZM190.779 67.4003C190.437 67.4003 190.14 67.2799 189.886 67.0393C189.646 66.7859 189.525 66.4883 189.525 66.1463C189.525 65.8043 189.646 65.5129 189.886 65.2723C190.14 65.0316 190.437 64.9113 190.779 64.9113C191.121 64.9113 191.413 65.0316 191.653 65.2723C191.907 65.5129 192.033 65.8043 192.033 66.1463C192.033 66.4883 191.907 66.7859 191.653 67.0393C191.413 67.2799 191.121 67.4003 190.779 67.4003ZM194.332 78.7053V69.2053H196.327L196.46 70.9533V78.7053H194.332ZM200.773 78.7053V73.8413H202.901V78.7053H200.773ZM200.773 73.8413C200.773 73.0813 200.685 72.4986 200.507 72.0933C200.343 71.6753 200.102 71.3839 199.785 71.2193C199.481 71.0546 199.12 70.9723 198.702 70.9723C197.993 70.9596 197.442 71.1939 197.049 71.6753C196.657 72.1566 196.46 72.8469 196.46 73.7463H195.662C195.662 72.7456 195.808 71.8906 196.099 71.1813C196.391 70.4593 196.809 69.9146 197.353 69.5473C197.898 69.1673 198.544 68.9773 199.291 68.9773C200.051 68.9773 200.697 69.1293 201.229 69.4333C201.774 69.7373 202.186 70.2123 202.464 70.8583C202.756 71.4916 202.901 72.3213 202.901 73.3473V73.8413H200.773ZM209.142 82.7523C208.471 82.7523 207.863 82.6953 207.318 82.5813C206.786 82.4673 206.336 82.3343 205.969 82.1823C205.602 82.0303 205.317 81.8846 205.114 81.7453L205.931 80.0353C206.108 80.1239 206.343 80.2316 206.634 80.3583C206.938 80.4976 207.293 80.6179 207.698 80.7193C208.103 80.8206 208.559 80.8713 209.066 80.8713C209.611 80.8713 210.098 80.7573 210.529 80.5293C210.96 80.3139 211.295 79.9783 211.536 79.5223C211.777 79.0663 211.897 78.4836 211.897 77.7743V69.2053H214.025V77.7173C214.025 78.7939 213.822 79.7059 213.417 80.4533C213.012 81.2133 212.442 81.7833 211.707 82.1633C210.972 82.5559 210.117 82.7523 209.142 82.7523ZM208.819 78.5153C207.958 78.5153 207.204 78.3189 206.558 77.9263C205.925 77.5336 205.424 76.9889 205.057 76.2923C204.702 75.5829 204.525 74.7659 204.525 73.8413C204.525 72.8533 204.702 71.9983 205.057 71.2763C205.424 70.5543 205.925 69.9906 206.558 69.5853C207.204 69.1799 207.958 68.9773 208.819 68.9773C209.592 68.9773 210.263 69.1799 210.833 69.5853C211.416 69.9906 211.865 70.5606 212.182 71.2953C212.499 72.0173 212.657 72.8723 212.657 73.8603C212.657 74.7976 212.499 75.6146 212.182 76.3113C211.865 77.0079 211.416 77.5526 210.833 77.9453C210.263 78.3253 209.592 78.5153 208.819 78.5153ZM209.408 76.7103C209.889 76.7103 210.307 76.5836 210.662 76.3303C211.029 76.0769 211.314 75.7349 211.517 75.3043C211.72 74.8609 211.821 74.3543 211.821 73.7843C211.821 73.2016 211.72 72.6949 211.517 72.2643C211.314 71.8209 211.029 71.4789 210.662 71.2383C210.295 70.9849 209.87 70.8583 209.389 70.8583C208.882 70.8583 208.433 70.9849 208.04 71.2383C207.66 71.4789 207.356 71.8209 207.128 72.2643C206.913 72.6949 206.805 73.2016 206.805 73.7843C206.805 74.3543 206.913 74.8609 207.128 75.3043C207.356 75.7349 207.666 76.0769 208.059 76.3303C208.452 76.5836 208.901 76.7103 209.408 76.7103ZM221.357 78.7053V65.4053H226.05C226.962 65.4053 227.767 65.5889 228.463 65.9563C229.16 66.3236 229.705 66.8366 230.097 67.4953C230.49 68.1413 230.686 68.8949 230.686 69.7563C230.686 70.5923 230.503 71.3396 230.135 71.9983C229.768 72.6569 229.255 73.1763 228.596 73.5563C227.95 73.9236 227.197 74.1073 226.335 74.1073H223.561V78.7053H221.357ZM223.561 72.0743H226.297C226.931 72.0743 227.45 71.8589 227.855 71.4283C228.261 70.9976 228.463 70.4403 228.463 69.7563C228.463 69.0596 228.235 68.4959 227.779 68.0653C227.323 67.6346 226.734 67.4193 226.012 67.4193H223.561V72.0743ZM232.24 78.7053V65.4053H234.368V78.7053H232.24ZM242.525 78.7053L242.43 76.9193V73.8223C242.43 73.1763 242.36 72.6379 242.221 72.2073C242.094 71.7639 241.879 71.4283 241.575 71.2003C241.283 70.9596 240.891 70.8393 240.397 70.8393C239.941 70.8393 239.542 70.9343 239.2 71.1243C238.858 71.3143 238.566 71.6119 238.326 72.0173L236.464 71.3333C236.666 70.9153 236.932 70.5289 237.262 70.1743C237.604 69.8069 238.028 69.5156 238.535 69.3003C239.054 69.0849 239.675 68.9773 240.397 68.9773C241.321 68.9773 242.094 69.1609 242.715 69.5283C243.335 69.8829 243.791 70.3959 244.083 71.0673C244.387 71.7386 244.539 72.5493 244.539 73.4993L244.482 78.7053H242.525ZM239.789 78.9333C238.649 78.9333 237.762 78.6799 237.129 78.1733C236.508 77.6666 236.198 76.9509 236.198 76.0263C236.198 75.0383 236.527 74.2846 237.186 73.7653C237.857 73.2459 238.788 72.9863 239.979 72.9863H242.525V74.6203H240.663C239.814 74.6203 239.219 74.7406 238.877 74.9813C238.535 75.2093 238.364 75.5386 238.364 75.9693C238.364 76.3366 238.509 76.6279 238.801 76.8433C239.105 77.0459 239.523 77.1473 240.055 77.1473C240.536 77.1473 240.954 77.0396 241.309 76.8243C241.663 76.6089 241.936 76.3239 242.126 75.9693C242.328 75.6146 242.43 75.2156 242.43 74.7723H243.057C243.057 76.0643 242.797 77.0839 242.278 77.8313C241.758 78.5659 240.929 78.9333 239.789 78.9333ZM250.475 78.9333C249.474 78.9333 248.708 78.6863 248.176 78.1923C247.656 77.6856 247.397 76.9636 247.397 76.0263V66.2413H249.506V75.6273C249.506 76.0706 249.607 76.4063 249.81 76.6343C250.025 76.8623 250.335 76.9763 250.741 76.9763C250.867 76.9763 251.007 76.9509 251.159 76.9003C251.311 76.8496 251.482 76.7546 251.672 76.6153L252.451 78.2303C252.121 78.4583 251.792 78.6293 251.463 78.7433C251.133 78.8699 250.804 78.9333 250.475 78.9333ZM245.82 71.0293V69.2053H252.071V71.0293H245.82ZM255.103 78.7053V68.1983C255.103 67.1976 255.35 66.4313 255.844 65.8993C256.35 65.3546 257.11 65.0823 258.124 65.0823C258.453 65.0823 258.801 65.1393 259.169 65.2533C259.549 65.3546 259.91 65.4939 260.252 65.6713L259.473 67.2483C259.232 67.1343 259.017 67.0519 258.827 67.0013C258.649 66.9506 258.491 66.9253 258.352 66.9253C257.972 66.9253 257.687 67.0519 257.497 67.3053C257.319 67.5459 257.231 67.9449 257.231 68.5023V78.7053H255.103ZM253.469 70.9533V69.2053H259.72V70.9533H253.469ZM265.648 78.9333C264.698 78.9333 263.849 78.7243 263.102 78.3063C262.367 77.8756 261.791 77.2866 261.373 76.5393C260.955 75.7919 260.746 74.9306 260.746 73.9553C260.746 72.9799 260.948 72.1186 261.354 71.3713C261.772 70.6239 262.348 70.0413 263.083 69.6233C263.817 69.1926 264.66 68.9773 265.61 68.9773C266.56 68.9773 267.402 69.1926 268.137 69.6233C268.871 70.0413 269.441 70.6239 269.847 71.3713C270.265 72.1186 270.474 72.9799 270.474 73.9553C270.474 74.9306 270.271 75.7919 269.866 76.5393C269.46 77.2866 268.89 77.8756 268.156 78.3063C267.421 78.7243 266.585 78.9333 265.648 78.9333ZM265.648 76.9763C266.167 76.9763 266.629 76.8496 267.035 76.5963C267.44 76.3303 267.757 75.9756 267.985 75.5323C268.213 75.0763 268.327 74.5506 268.327 73.9553C268.327 73.3599 268.206 72.8406 267.966 72.3973C267.738 71.9413 267.421 71.5866 267.016 71.3333C266.61 71.0673 266.142 70.9343 265.61 70.9343C265.078 70.9343 264.609 71.0609 264.204 71.3143C263.798 71.5676 263.482 71.9223 263.254 72.3783C263.026 72.8343 262.912 73.3599 262.912 73.9553C262.912 74.5506 263.026 75.0763 263.254 75.5323C263.494 75.9756 263.817 76.3303 264.223 76.5963C264.641 76.8496 265.116 76.9763 265.648 76.9763ZM273.724 73.6513C273.724 72.6253 273.92 71.7829 274.313 71.1243C274.705 70.4656 275.212 69.9779 275.833 69.6613C276.466 69.3319 277.125 69.1673 277.809 69.1673V71.2003C277.226 71.2003 276.675 71.2826 276.156 71.4473C275.649 71.5993 275.237 71.8526 274.921 72.2073C274.604 72.5619 274.446 73.0306 274.446 73.6133L273.724 73.6513ZM272.318 78.7053V69.2053H274.446V78.7053H272.318ZM279.22 78.7053V69.2053H281.215L281.31 70.4783C281.601 69.9843 281.975 69.6106 282.431 69.3573C282.887 69.1039 283.406 68.9773 283.989 68.9773C284.749 68.9773 285.395 69.1483 285.927 69.4903C286.459 69.8323 286.845 70.3516 287.086 71.0483C287.365 70.3769 287.757 69.8639 288.264 69.5093C288.771 69.1546 289.366 68.9773 290.05 68.9773C291.152 68.9773 292.001 69.3319 292.596 70.0413C293.191 70.7379 293.483 71.8146 293.47 73.2713V78.7053H291.361V73.8413C291.361 73.0813 291.279 72.4986 291.114 72.0933C290.949 71.6753 290.728 71.3839 290.449 71.2193C290.17 71.0546 289.847 70.9723 289.48 70.9723C288.821 70.9596 288.308 71.1939 287.941 71.6753C287.586 72.1566 287.409 72.8469 287.409 73.7463V78.7053H285.281V73.8413C285.281 73.0813 285.199 72.4986 285.034 72.0933C284.882 71.6753 284.667 71.3839 284.388 71.2193C284.109 71.0546 283.786 70.9723 283.419 70.9723C282.76 70.9596 282.247 71.1939 281.88 71.6753C281.525 72.1566 281.348 72.8469 281.348 73.7463V78.7053H279.22Z" fill="#E8F54A"/>
</svg>
