<svg width="22" height="22" viewBox="0 0 22 22" fill="none" xmlns="http://www.w3.org/2000/svg">
<path d="M6.41683 5.50043C5.29791 5.50378 4.67867 5.53055 4.16983 5.74412C3.45709 6.04328 2.87667 6.59587 2.53759 7.2981C2.26082 7.87128 2.21554 8.60564 2.12496 10.0744L1.98302 12.3758C1.75777 16.0282 1.64514 17.8544 2.71688 19.0105C3.78861 20.1666 5.59415 20.1666 9.20525 20.1666H12.7951C16.4062 20.1666 18.2117 20.1666 19.2835 19.0105C20.3552 17.8544 20.2426 16.0282 20.0173 12.3758L19.8753 10.0744C19.7848 8.60564 19.7395 7.87128 19.4628 7.2981C19.1237 6.59587 18.5432 6.04328 17.8305 5.74412C17.3217 5.53055 16.7024 5.50378 15.5835 5.50043" stroke="#141B34" stroke-width="1.375" stroke-linecap="round"/>
<path d="M15.5833 6.41665L14.7713 4.38662C14.421 3.51078 14.1161 2.51724 13.2152 2.07123C12.7347 1.83331 12.1564 1.83331 11 1.83331C9.84349 1.83331 9.26526 1.83331 8.7847 2.07123C7.88384 2.51724 7.57897 3.51078 7.22864 4.38662L6.41663 6.41665" stroke="#141B34" stroke-width="1.375" stroke-linecap="round" stroke-linejoin="round"/>
<path d="M14.2083 12.8333C14.2083 14.6052 12.7719 16.0417 11 16.0417C9.22804 16.0417 7.79163 14.6052 7.79163 12.8333C7.79163 11.0614 9.22804 9.625 11 9.625C12.7719 9.625 14.2083 11.0614 14.2083 12.8333Z" stroke="#141B34" stroke-width="1.375"/>
<path d="M10.9998 5.5H11.0088" stroke="#141B34" stroke-width="1.83333" stroke-linecap="round" stroke-linejoin="round"/>
</svg>
