<svg width="18" height="18" viewBox="0 0 18 18" fill="none" xmlns="http://www.w3.org/2000/svg">
<path d="M7.20835 0.458313H10.7917C14.1701 0.458313 15.8593 0.458313 16.9089 1.5117C17.9584 2.56509 17.9584 4.26049 17.9584 7.65131V8.1009C17.9584 11.4916 17.9584 13.1871 16.9089 14.2405C15.8593 15.2938 14.1701 15.2938 10.7917 15.2938C10.2896 15.3051 9.88969 15.3434 9.49685 15.4332C8.59369 15.6419 7.74677 16.0652 6.9157 16.4806C6.759 16.559 6.60261 16.6371 6.44678 16.7135C5.04696 17.3985 4.34706 17.7411 3.90783 17.4204C3.48872 17.1071 3.47028 16.5161 3.58702 15.8626C3.63524 15.5926 3.65935 15.4576 3.60064 15.3728C3.54193 15.2881 3.40675 15.2631 3.1364 15.2131C2.25615 15.0506 1.57534 14.7263 1.09122 14.2405C0.041687 13.1871 0.041687 11.4916 0.041687 8.1009V7.65131C0.041687 4.26049 0.041687 2.56509 1.09122 1.5117C2.14075 0.458313 3.82995 0.458313 7.20835 0.458313Z" fill="#1B1B35"/>
</svg>
