<svg width="22" height="22" viewBox="0 0 22 22" fill="none" xmlns="http://www.w3.org/2000/svg">
<path d="M3.66663 11.0004V13.3325C3.66663 16.3071 3.66663 17.7944 4.47886 18.8018C4.64295 19.0053 4.82833 19.1908 5.03185 19.3549C6.03924 20.167 7.52654 20.167 10.5011 20.167C11.1479 20.167 11.4712 20.167 11.7674 20.0625C11.829 20.0408 11.8893 20.0158 11.9483 19.9876C12.2316 19.8521 12.4602 19.6234 12.9175 19.1661L17.2593 14.8243C17.7893 14.2944 18.0542 14.0295 18.1938 13.6926C18.3333 13.3556 18.3333 12.981 18.3333 12.2316V9.16702C18.3333 5.71007 18.3333 3.9816 17.2593 2.90765C16.2885 1.93675 14.7826 1.8436 11.9483 1.83466M11.9166 19.7087V19.2504C11.9166 16.6577 11.9166 15.3613 12.7221 14.5558C13.5276 13.7504 14.8239 13.7504 17.4166 13.7504H17.875" stroke="#141B34" stroke-width="1.375" stroke-linecap="round" stroke-linejoin="round"/>
<path d="M3.66663 7.54443V5.00596C3.66663 3.25352 5.10304 1.83289 6.87496 1.83289C8.64688 1.83289 10.0833 3.25352 10.0833 5.00596V8.49635C10.0833 9.37255 9.36508 10.0829 8.47913 10.0829C7.59317 10.0829 6.87496 9.37255 6.87496 8.49635V5.00596" stroke="#141B34" stroke-width="1.375" stroke-linecap="round" stroke-linejoin="round"/>
</svg>
