<svg width="22" height="22" viewBox="0 0 22 22" fill="none" xmlns="http://www.w3.org/2000/svg">
<path d="M2.75 14.6667L6.8472 10.5695C7.15846 10.2582 7.58063 10.0833 8.02083 10.0833C8.46104 10.0833 8.88321 10.2582 9.19444 10.5695L12.8333 14.2083M12.8333 14.2083L14.2083 15.5833M12.8333 14.2083L14.6389 12.4028C14.9501 12.0916 15.3723 11.9167 15.8125 11.9167C16.2527 11.9167 16.6749 12.0916 16.9861 12.4028L19.25 14.6667" stroke="#141B34" stroke-width="1.375" stroke-linecap="round" stroke-linejoin="round"/>
<path d="M14.2083 7.33332C14.4614 7.33332 14.6667 7.12812 14.6667 6.87499C14.6667 6.62186 14.4614 6.41666 14.2083 6.41666M14.2083 7.33332C13.9552 7.33332 13.75 7.12812 13.75 6.87499C13.75 6.62186 13.9552 6.41666 14.2083 6.41666M14.2083 7.33332V6.41666" stroke="#141B34" stroke-width="1.375" stroke-linecap="round" stroke-linejoin="round"/>
<path d="M3.38977 18.1016C2.29163 16.8159 2.29163 14.8772 2.29163 11C2.29163 7.12274 2.29163 5.18411 3.38977 3.89835C3.5457 3.71577 3.71574 3.54573 3.89832 3.3898C5.18408 2.29166 7.12271 2.29166 11 2.29166C14.8772 2.29166 16.8158 2.29166 18.1016 3.3898C18.2842 3.54573 18.4542 3.71577 18.6101 3.89835C19.7083 5.18411 19.7083 7.12274 19.7083 11C19.7083 14.8772 19.7083 16.8159 18.6101 18.1016C18.4542 18.2842 18.2842 18.4542 18.1016 18.6102C16.8158 19.7083 14.8772 19.7083 11 19.7083C7.12271 19.7083 5.18408 19.7083 3.89832 18.6102C3.71574 18.4542 3.5457 18.2842 3.38977 18.1016Z" stroke="#141B34" stroke-width="1.375" stroke-linecap="round" stroke-linejoin="round"/>
</svg>
