<svg width="22" height="22" viewBox="0 0 22 22" fill="none" xmlns="http://www.w3.org/2000/svg">
<path d="M20.5973 1.54257C20.1299 1.03918 19.397 0.850631 18.6968 0.783141C17.9611 0.712231 17.08 0.759391 16.1313 0.883821C14.2288 1.13337 11.9302 1.71102 9.7222 2.42176C7.51281 3.13295 5.35914 3.98865 3.74626 4.80847C2.94355 5.21648 2.24734 5.62932 1.74121 6.02586C1.48919 6.22331 1.25922 6.436 1.08623 6.66237C0.921234 6.87829 0.747644 7.18549 0.750024 7.55582C0.756294 8.5279 1.41829 9.2149 2.12327 9.676C2.84284 10.1467 3.77998 10.5014 4.71161 10.7792C5.65324 11.06 6.64346 11.2776 7.49473 11.454C7.55052 11.4655 7.66203 11.4886 7.79867 11.5168C8.31323 11.6231 8.57051 11.6763 8.81237 11.6039C9.0542 11.5315 9.2402 11.3456 9.612 10.9737L13.2929 7.29289C13.6834 6.90237 14.3166 6.90237 14.7071 7.29289C15.0976 7.68342 15.0976 8.31659 14.7071 8.70711L11.2745 12.1397C10.8954 12.5188 10.7059 12.7083 10.6342 12.9543C10.5624 13.2003 10.6203 13.4614 10.736 13.9837C11.1844 16.0084 11.5738 17.6815 11.9623 18.8071C12.1892 19.4645 12.4445 20.0336 12.7678 20.4533C13.1052 20.8913 13.5642 21.2222 14.1683 21.2489C14.5444 21.2655 14.8571 21.0938 15.0715 20.9344C15.2975 20.7666 15.51 20.5414 15.7071 20.2953C16.1031 19.8005 16.5192 19.1159 16.9332 18.3247C17.7652 16.7347 18.6462 14.6028 19.3917 12.4096C20.1368 10.2173 20.7577 7.9306 21.0568 6.0301C21.206 5.0823 21.2798 4.20207 21.2388 3.46477C21.1999 2.76556 21.0509 2.03106 20.5973 1.54257Z" fill="#E8F54A"/>
</svg>
