<svg width="22" height="22" viewBox="0 0 22 22" fill="none" xmlns="http://www.w3.org/2000/svg">
<path d="M10.0833 7.33331H11.9166" stroke="#141B34" stroke-width="1.375" stroke-linecap="round"/>
<path d="M1.83325 10.0834C1.83325 7.05851 1.83325 5.54608 2.77295 4.60639C3.71265 3.66669 5.22507 3.66669 8.24992 3.66669H9.16659C12.1914 3.66669 13.7038 3.66669 14.6436 4.60639C15.5833 5.54608 15.5833 7.05851 15.5833 10.0834V11.9167C15.5833 14.9415 15.5833 16.4539 14.6436 17.3937C13.7038 18.3334 12.1914 18.3334 9.16659 18.3334H8.24992C5.22507 18.3334 3.71265 18.3334 2.77295 17.3937C1.83325 16.4539 1.83325 14.9415 1.83325 11.9167V10.0834Z" stroke="#141B34" stroke-width="1.375"/>
<path d="M15.5833 8.16368L15.6987 8.06845C17.6381 6.46819 18.6079 5.66806 19.3872 6.0544C20.1666 6.44074 20.1666 7.72157 20.1666 10.2832V11.7167C20.1666 14.2784 20.1666 15.5592 19.3872 15.9456C18.6079 16.3319 17.6381 15.5318 15.6987 13.9315L15.5833 13.8362" stroke="#141B34" stroke-width="1.375" stroke-linecap="round"/>
</svg>
