<svg width="22" height="22" viewBox="0 0 22 22" fill="none" xmlns="http://www.w3.org/2000/svg">
<path d="M17.3927 13.7697C17.398 13.7434 17.4356 13.7434 17.4409 13.7697C17.7195 15.1324 18.7843 16.1973 20.1471 16.4759C20.1734 16.4812 20.1734 16.5188 20.1471 16.5241C18.7843 16.8027 17.7195 17.8676 17.4409 19.2303C17.4356 19.2566 17.398 19.2566 17.3927 19.2303C17.1141 17.8676 16.0492 16.8027 14.6865 16.5241C14.6602 16.5188 14.6602 16.4812 14.6865 16.4759C16.0492 16.1973 17.1141 15.1324 17.3927 13.7697Z" stroke="#141B34" stroke-width="1.375"/>
<path d="M13.4263 11.6166C14.106 11.1403 14.4458 10.9023 14.5819 10.5561C14.6949 10.2686 14.6949 9.89806 14.5819 9.6105C14.4458 9.26437 14.106 9.02627 13.4263 8.55001C12.9501 8.21635 12.457 7.88528 12.0236 7.62344C11.6627 7.4053 11.2373 7.1712 10.8102 6.94634C10.0879 6.56618 9.72684 6.3761 9.37723 6.42391C9.08736 6.46354 8.78424 6.64799 8.60593 6.89323C8.3908 7.18909 8.36396 7.61453 8.31029 8.46538C8.27498 9.02504 8.25 9.59391 8.25 10.0833C8.25 10.5727 8.27498 11.1416 8.31029 11.7012C8.36396 12.5521 8.3908 12.9775 8.60593 13.2734C8.78424 13.5186 9.08736 13.7031 9.37723 13.7427C9.72684 13.7905 10.0879 13.6005 10.8102 13.2202C11.2373 12.9954 11.6627 12.7614 12.0236 12.5432C12.457 12.2813 12.9501 11.9503 13.4263 11.6166Z" stroke="#141B34" stroke-width="1.375" stroke-linecap="round"/>
<path d="M20.0493 13.5994C20.1666 12.7625 20.1666 11.6672 20.1666 10.0833C20.1666 7.51643 20.1666 6.23298 19.667 5.25255C19.2276 4.39014 18.5265 3.68897 17.6641 3.24956C16.6836 2.75 15.4002 2.75 12.8333 2.75H9.16659C6.59968 2.75 5.31623 2.75 4.3358 3.24956C3.47339 3.68897 2.77222 4.39014 2.33281 5.25255C1.83325 6.23298 1.83325 7.51643 1.83325 10.0833C1.83325 12.6503 1.83325 13.9337 2.33281 14.9142C2.77222 15.7766 3.47339 16.4777 4.3358 16.9171C5.31623 17.4167 6.59968 17.4167 9.16659 17.4167H12.3068" stroke="#141B34" stroke-width="1.375" stroke-linecap="round" stroke-linejoin="round"/>
</svg>
